<svg class="svg-icon" style="width: 1em; height: 1em;vertical-align: middle;fill: currentColor;overflow: hidden;" viewBox="0 0 1024 1024" version="1.1" xmlns="http://www.w3.org/2000/svg"><path d="M768 256h-153.173333l98.133333-97.706667a42.666667 42.666667 0 1 0-60.586667-60.586666L512 236.373333l-49.92-85.333333a42.666667 42.666667 0 1 0-74.24 42.666667L426.666667 256H256a128 128 0 0 0-128 128v341.333333a128 128 0 0 0 128 128v42.666667a42.666667 42.666667 0 0 0 85.333333 0v-42.666667h341.333334v42.666667a42.666667 42.666667 0 0 0 85.333333 0v-42.666667a128 128 0 0 0 128-128V384a128 128 0 0 0-128-128z m42.666667 469.333333a42.666667 42.666667 0 0 1-42.666667 42.666667H256a42.666667 42.666667 0 0 1-42.666667-42.666667V384a42.666667 42.666667 0 0 1 42.666667-42.666667h512a42.666667 42.666667 0 0 1 42.666667 42.666667z"  /></svg>